{"title":"Darr @ The Mall (2014) - 1CD - DVD-Rip - Hindi - x264 - MP3 - Ma","uid":11353065,"size":746172421,"categoryP":"video","categoryS":"hd___movies","magnet":"?xt=urn:btih:e6aba48fbb4656b872d119ca59d11fdf324b7ea6&amp;dn=Darr+%40+The+Mall+%282014%29+-+1CD+-+DVD-Rip+-+Hindi+-+x264+-+MP3+-+Ma&amp;tr=udp%3A%2F%2Ftracker.openbittorrent.com%3A80&amp;tr=udp%3A%2F%2Fopen.demonii.com%3A1337&amp;tr=udp%3A%2F%2Ftracker.coppersurfer.tk%3A6969&amp;tr=udp%3A%2F%2Fexodus.desync.com%3A6969","seeders":2,"leechers":2,"uploader":"inovai","files":4,"time":1414909938,"description":"Darr @ The Mall (2014) - 1CD - DVD-Rip - Hindi - x264 - MP3 - Mafiaking - Team TellyTNT ExClusive\n\nCover:\n &lt;a href=&quot;\nhttp://forum.primetimeshow.in/viewtopic.php?f=7&amp;t=804&quot; rel=&quot;nofollow&quot; target=&quot;_NEW&quot;&gt;\nhttp://forum.primetimeshow.in/viewtopic.php?f=7&amp;t=804&lt;/a&gt;\n\nRatings: 5.3/10\n\nGENRE: Horror | Thriller\n\nScreenshots:\n &lt;a href=&quot;\nhttp://m.primetimeshow.in/share-8AE9_5455178B.html&quot; rel=&quot;nofollow&quot; target=&quot;_NEW&quot;&gt;\nhttp://m.primetimeshow.in/share-8AE9_5455178B.html&lt;/a&gt;\n &lt;a href=&quot;\nhttp://m.primetimeshow.in/share-EE5B_5455178B.html&quot; rel=&quot;nofollow&quot; target=&quot;_NEW&quot;&gt;\nhttp://m.primetimeshow.in/share-EE5B_5455178B.html&lt;/a&gt;\n &lt;a href=&quot;\nhttp://m.primetimeshow.in/share-3074_5455178B.html&quot; rel=&quot;nofollow&quot; target=&quot;_NEW&quot;&gt;\nhttp://m.primetimeshow.in/share-3074_5455178B.html&lt;/a&gt;\n &lt;a href=&quot;\nhttp://m.primetimeshow.in/share-96BD_5455178B.html&quot; rel=&quot;nofollow&quot; target=&quot;_NEW&quot;&gt;\nhttp://m.primetimeshow.in/share-96BD_5455178B.html&lt;/a&gt;\n &lt;a href=&quot;\nhttp://m.primetimeshow.in/share-0741_5455178B.html&quot; rel=&quot;nofollow&quot; target=&quot;_NEW&quot;&gt;\nhttp://m.primetimeshow.in/share-0741_5455178B.html&lt;/a&gt;\n\n\nGeneral\nUnique ID : 252645290152732052425990243375922890232 (0xBE11B684A2A64F5AB9F33C7D509545F8)\nComplete name : Darr @ The Mall (2014) - 1CD - DVD-Rip - Hindi - x264 - MP3 - Mafiaking - Team TellyTNT ExClusive.mkv\nFormat : Matroska\nFormat version : Version 4 / Version 2\nFile size : 704 MiB\nDuration : 1h 55mn\nOverall bit rate : 850 Kbps\nMovie name : Darr @ The Mall (2014) - 1CD - DVD-Rip - Hindi - x264 - MP3 - Mafiaking - Team TellyTNT ExClusive\nEncoded date : UTC 2014-10-31 16:58:13\nWriting application : mkvmerge v7.0.0 ('Where We Going') 64bit built on Jun 9 2014 15:16:27\nWriting library : libebml v1.3.0 + libmatroska v1.4.1\n\n\nVideo\nID : 1\nFormat : AVC\nFormat/Info : Advanced Video Codec\nFormat profile : &lt;a class=&quot;__cf_email__&quot; href=&quot;/cdn-cgi/l/email-protection&quot; data-cfemail=&quot;3179585659717d051f00&quot;&gt;[email&amp;#160;protected]&lt;/a&gt;&lt;script cf-hash='f9e31' type=&quot;text/javascript&quot;&gt;\n/* &lt;![CDATA[ */!function(){try{var t=&quot;currentScript&quot;in document?document.currentScript:function(){for(var t=document.getElementsByTagName(&quot;script&quot;),e=t.length;e--;)if(t[e].getAttribute(&quot;cf-hash&quot;))return t[e]}();if(t&amp;&amp;t.previousSibling){var e,r,n,i,c=t.previousSibling,a=c.getAttribute(&quot;data-cfemail&quot;);if(a){for(e=&quot;&quot;,r=parseInt(a.substr(0,2),16),n=2;a.length-n;n+=2)i=parseInt(a.substr(n,2),16)^r,e+=String.fromCharCode(i);e=document.createTextNode(e),c.parentNode.replaceChild(e,c)}}}catch(u){}}();/* ]]&gt; */&lt;/script&gt;\nFormat settings, CABAC : Yes\nFormat settings, ReFrames : 4 frames\nCodec ID : V_MPEG4/ISO/AVC\nDuration : 1h 55mn\nBit rate : 720 Kbps\nWidth : 640 pixels\nHeight : 272 pixels\nDisplay aspect ratio : 2.35:1\nFrame rate mode : Constant\nFrame rate : 29.970 fps\nColor space : YUV\nChroma subsampling : 4:2:0\nBit depth : 8 bits\nScan type : Progressive\nBits/(Pixel*Frame) : 0.138\nStream size : 584 MiB (83%)\nTitle : Mafiaking\nWriting library : x264 core 142 r2431 ac76440\nLanguage : Hindi\nDefault : Yes\nForced : No\n\n\nAudio\nID : 2\nFormat : MPEG Audio\nFormat version : Version 1\nFormat profile : Layer 3\nMode : Joint stereo\nMode extension : MS Stereo\nCodec ID : A_MPEG/L3\nCodec ID/Hint : MP3\nDuration : 1h 55mn\nBit rate mode : Constant\nBit rate : 128 Kbps\nChannel(s) : 2 channels\nSampling rate : 48.0 KHz\nCompression mode : Lossy\nStream size : 106 MiB (15%)\nTitle : Mafiaking\nWriting library : LAME3.99r\nLanguage : Hindi\nDefault : Yes\nForced : No\n\n\nSAMPLE WITH IN TORRENT\n\nSource Own @ Team TellyTNT!!","torrent":{"xt":"urn:btih:e6aba48fbb4656b872d119ca59d11fdf324b7ea6","amp;dn":"Darr+%40+The+Mall+%282014%29+-+1CD+-+DVD-Rip+-+Hindi+-+x264+-+MP3+-+Ma","amp;tr":["udp%3A%2F%2Ftracker.openbittorrent.com%3A80","udp%3A%2F%2Fopen.demonii.com%3A1337","udp%3A%2F%2Ftracker.coppersurfer.tk%3A6969","udp%3A%2F%2Fexodus.desync.com%3A6969"],"infoHash":"e6aba48fbb4656b872d119ca59d11fdf324b7ea6","infoHashBuffer":{"type":"Buffer","data":[230,171,164,143,187,70,86,184,114,209,25,202,89,209,31,223,50,75,126,166]},"announce":[],"urlList":[]}}